<?xml version="1.0" encoding="UTF-8"?>
<svg width="300px" height="73px" viewBox="0 0 300 73" version="1.1" xmlns="http://www.w3.org/2000/svg" xmlns:xlink="http://www.w3.org/1999/xlink">
    <!-- Generator: Sketch 46.2 (44496) - http://www.bohemiancoding.com/sketch -->
    <title>Trafi_Lockup_Pink_RGB</title>
    <desc>Created with Sketch.</desc>
    <defs>
        <linearGradient x1="94.9394133%" y1="92.0913458%" x2="8.4226112%" y2="6.31537639%" id="linearGradient-1">
            <stop stop-color="#000000" offset="0%"></stop>
            <stop stop-color="#303030" offset="4.727238%"></stop>
            <stop stop-color="#5B5B5B" offset="9.789145%"></stop>
            <stop stop-color="#828282" offset="15.41%"></stop>
            <stop stop-color="#A4A4A4" offset="21.47%"></stop>
            <stop stop-color="#C0C0C0" offset="28.08%"></stop>
            <stop stop-color="#D8D8D8" offset="35.45%"></stop>
            <stop stop-color="#E9E9E9" offset="43.9%"></stop>
            <stop stop-color="#F6F6F6" offset="54.08%"></stop>
            <stop stop-color="#FDFDFD" offset="67.77%"></stop>
            <stop stop-color="#FFFFFF" offset="100%"></stop>
        </linearGradient>
        <linearGradient x1="110.500036%" y1="57.4364729%" x2="-45.5131268%" y2="32.7611975%" id="linearGradient-2">
            <stop stop-color="#000000" offset="0%"></stop>
            <stop stop-color="#303030" offset="4.727238%"></stop>
            <stop stop-color="#5B5B5B" offset="9.789145%"></stop>
            <stop stop-color="#828282" offset="15.41%"></stop>
            <stop stop-color="#A4A4A4" offset="21.47%"></stop>
            <stop stop-color="#C0C0C0" offset="28.08%"></stop>
            <stop stop-color="#D8D8D8" offset="35.45%"></stop>
            <stop stop-color="#E9E9E9" offset="43.9%"></stop>
            <stop stop-color="#F6F6F6" offset="54.08%"></stop>
            <stop stop-color="#FDFDFD" offset="67.77%"></stop>
            <stop stop-color="#FFFFFF" offset="100%"></stop>
        </linearGradient>
    </defs>
    <g id="Page-1" stroke="none" stroke-width="1" fill="none" fill-rule="evenodd">
        <g id="Trafi_Lockup_Pink_RGB" fill-rule="nonzero">
            <g id="Group" transform="translate(0.000000, 3.903709)" fill="#FF1499">
                <path d="M50.8458035,10.1496422 L50.8458035,2.55692908 C50.8458035,2.06896552 50.4554327,1.67859466 49.9674691,1.67859466 L0.975927131,1.67859466 C0.487963565,1.67859466 0.0975927131,2.06896552 0.0975927131,2.55692908 L0.0975927131,10.1496422 C0.0975927131,10.6376057 0.487963565,11.0279766 0.975927131,11.0279766 L20.3773585,11.0279766 L20.3773585,62.8887443 C20.3773585,63.3767079 20.7677293,63.7670787 21.2556929,63.7670787 L29.6877033,63.7670787 C30.1756669,63.7670787 30.5660377,63.3767079 30.5660377,62.8887443 L30.5660377,11.0279766 L49.9674691,11.0279766 C50.4554327,11.0279766 50.8458035,10.6376057 50.8458035,10.1496422 Z" id="Shape"></path>
                <path d="M75.2244632,19.245283 C73.6629798,18.7378009 71.9648666,18.4840599 70.1301236,18.4840599 C64.7820429,18.4840599 61.0149642,20.4944697 58.8093689,24.5152895 L58.8093689,19.928432 C58.8093689,19.4404684 58.418998,19.0500976 57.9310345,19.0500976 L50.0650618,19.0500976 C49.5770982,19.0500976 49.1867274,19.4404684 49.1867274,19.928432 L49.1867274,62.8887443 C49.1867274,63.3767079 49.5770982,63.7670787 50.0650618,63.7670787 L58.1262199,63.7670787 C58.6141835,63.7670787 59.0045543,63.3767079 59.0045543,62.8887443 L59.0045543,39.0566038 C59.0045543,35.4066363 59.8438517,32.7130774 61.5614834,30.93689 C63.2595966,29.1802212 65.4651919,28.3018868 68.1587508,28.3018868 C69.7397528,28.3018868 71.3207547,28.5751464 72.9017567,29.102147 C73.3897202,29.2582954 73.9167209,28.9655172 74.0338321,28.4580351 L75.8295381,20.2797658 C75.9076122,19.8308393 75.6538712,19.4014314 75.2244632,19.245283 Z" id="Shape"></path>
                <path d="M169.908913,19.0500976 L146.408588,19.0500976 L146.408588,15.4586858 C146.408588,13.1945348 146.955107,11.4964216 148.067664,10.3643461 C149.160703,9.23227066 150.624593,8.66623292 152.459336,8.66623292 C154.294079,8.66623292 156.011711,9.17371503 157.612232,10.1886792 C158.04164,10.4619388 158.627196,10.286272 158.861418,9.81782694 L161.828237,3.82563435 C162.042941,3.39622642 161.867274,2.88874431 161.457385,2.67404034 C158.392973,0.936890046 155.113858,0.0780741705 151.620039,0.0780741705 C147.404034,0.0780741705 143.851659,1.3272609 140.962915,3.8451529 C138.07417,6.36304489 136.629798,10.071568 136.629798,14.9707222 L136.629798,19.0305791 L128.822381,19.0305791 C128.334418,19.0305791 127.944047,19.4209499 127.944047,19.9089135 L127.944047,27.2088484 C127.944047,27.696812 128.334418,28.0871828 128.822381,28.0871828 L136.629798,28.0871828 L136.629798,62.8692258 C136.629798,63.3571893 137.020169,63.7475602 137.508133,63.7475602 L145.569291,63.7475602 C146.057254,63.7475602 146.447625,63.3571893 146.447625,62.8692258 L146.447625,28.1067014 L161.008458,28.1067014 L161.008458,62.8887443 C161.008458,63.3767079 161.398829,63.7670787 161.886792,63.7670787 L169.947951,63.7670787 C170.435914,63.7670787 170.826285,63.3767079 170.826285,62.8887443 L170.826285,19.928432 C170.787248,19.4404684 170.396877,19.0500976 169.908913,19.0500976 Z" id="Shape"></path>
                <path d="M121.776187,19.0500976 L113.910215,19.0500976 C113.422251,19.0500976 113.03188,19.4404684 113.03188,19.928432 L113.03188,24.2420299 C109.830839,20.0260247 105.068315,17.9180221 98.7833442,17.9180221 C92.7521145,17.9180221 87.5016265,19.9869876 83.0318803,24.1054001 C78.562134,28.2238126 76.3370202,34.0013012 76.3370202,41.4183474 C76.3370202,48.6597267 78.4645413,54.3396226 82.7000651,58.4970722 C86.9551074,62.6545218 91.9518543,64.7234873 97.7488614,64.7234873 C103.682498,64.7234873 108.776838,62.6740403 113.03188,58.6141835 L113.03188,63.1229668 C113.03188,63.6109304 113.422251,64.0013012 113.910215,64.0013012 L121.776187,64.0013012 C122.264151,64.0013012 122.654522,63.6109304 122.654522,63.1229668 L122.654522,51.7241379 L122.654522,31.3272609 L122.654522,19.928432 C122.654522,19.4404684 122.264151,19.0500976 121.776187,19.0500976 Z M108.796357,51.8802863 C106.083279,54.4567339 102.921275,55.7449577 99.2713077,55.7449577 C95.6213403,55.7449577 92.517892,54.495771 89.9804815,51.977879 C87.4235524,49.459987 86.1548471,45.8685751 86.1548471,41.223162 C86.1548471,36.5777489 87.4625895,32.986337 90.0780742,30.468445 C92.6935589,27.950553 95.7774886,26.7013663 99.3689005,26.7013663 C103.018868,26.7013663 106.180872,27.9700716 108.854912,30.468445 C111.528953,32.986337 112.856213,36.5387118 112.856213,41.1255693 C112.836695,45.7124268 111.489915,49.3038386 108.796357,51.8802863 Z" id="Shape"></path>
            </g>
            <g id="Group" transform="translate(207.872479, 0.000000)">
                <path d="M76.6688354,36.3044893 L56.545218,60.2927781 C56.2524398,60.6441119 56.2914769,61.1711126 56.6428107,61.4638907 L65.4847105,68.8809369 C65.8360442,69.173715 66.3630449,69.1346779 66.655823,68.7833442 L90.5855563,40.2667534 C92.4983735,37.9830839 92.4983735,34.6454131 90.5855563,32.3617437 L66.655823,3.8451529 C66.3630449,3.49381913 65.8360442,3.45478204 65.4847105,3.74756018 L56.6428107,11.1646064 C56.2914769,11.4573845 56.2524398,11.9843852 56.545218,12.3357189 L76.6688354,36.3044893" id="Shape" fill="#FF1499"></path>
                <path d="M12.3357189,72.6089785 L0.858815875,72.6089785 C0.390370852,72.6089785 0,72.2186077 0,71.7501627 L0,0.858815875 C0,0.390370852 0.390370852,0 0.858815875,0 L12.3357189,0 C12.804164,0 13.1945348,0.390370852 13.1945348,0.858815875 L13.1945348,71.7306441 C13.1945348,72.2186077 12.804164,72.6089785 12.3357189,72.6089785 Z" id="Shape" fill="#FF1499"></path>
                <g transform="translate(56.213403, 3.513338)" id="Shape">
                    <path d="M9.29082628,0.214703969 L0.44892648,7.63175016 C0.0975927131,7.9245283 0.0585556278,8.45152895 0.351333767,8.80286272 L20.4554327,32.7911516 L29.06311,22.5243982 L10.4424203,0.331815224 C10.1496422,-0.0195185426 9.64216005,-0.0780741705 9.29082628,0.214703969 Z" fill="url(#linearGradient-1)" style="mix-blend-mode: multiply;" opacity="0.4"></path>
                    <path d="M34.3721535,28.848406 L25.7449577,18.562134 C27.6772934,20.8653221 27.6382563,24.1834743 25.7839948,26.4281067 L20.4554327,32.7911516 L0.331815224,56.7794405 C0.0390370852,57.1307742 0.0780741705,57.6577749 0.429407938,57.950553 L9.27130774,65.3675992 C9.62264151,65.6603774 10.1496422,65.6213403 10.4424203,65.2700065 L34.3721535,36.7534157 C36.3044893,34.4502277 36.3044893,31.1320755 34.3721535,28.848406 Z" fill="#FF1499"></path>
                </g>
                <g transform="translate(27.130774, 1.756669)" id="Shape">
                    <path d="M10.7937541,34.5478204 L0.0780741705,63.9817827 C-0.0780741705,64.4111906 0.136629798,64.8796357 0.566037736,65.035784 L11.4183474,68.9785296 C11.8477554,69.1346779 12.3162004,68.919974 12.4723487,68.490566 L24.0468445,36.655823 C24.5348081,35.289525 24.5348081,33.7865973 24.0468445,32.4202993 L12.4918673,0.605074821 C12.3357189,0.175666884 11.8672739,-0.0390370852 11.437866,0.117111256 L0.585556278,4.05985686 C0.156148341,4.2160052 -0.0585556278,4.68445023 0.0975927131,5.11385817 L10.7937541,34.5478204" fill="#FF1499"></path>
                    <path d="M11.4183474,0.117111256 L0.566037736,4.05985686 C0.136629798,4.2160052 -0.0780741705,4.68445023 0.0780741705,5.11385817 L10.7937541,34.5478204 L17.8204294,15.2439818 L12.4918673,0.605074821 C12.3357189,0.175666884 11.8477554,-0.0390370852 11.4183474,0.117111256 Z" fill="#FF1499"></path>
                    <path d="M11.4183474,0.117111256 L0.566037736,4.05985686 C0.136629798,4.2160052 -0.0780741705,4.68445023 0.0780741705,5.11385817 L10.7937541,34.5478204 L17.8204294,15.2439818 L12.4918673,0.605074821 C12.3357189,0.175666884 11.8477554,-0.0390370852 11.4183474,0.117111256 Z" fill="url(#linearGradient-2)" style="mix-blend-mode: multiply;" opacity="0.4"></path>
                    <path d="M24.066363,32.4398178 L17.8204294,15.2635003 L17.0396877,13.1359792 C17.5471698,14.5217957 17.5471698,16.044242 17.0396877,17.41054 L10.7937541,34.567339 L0.0780741705,64.0013012 C-0.0780741705,64.4307092 0.136629798,64.8991542 0.566037736,65.0553025 L11.4183474,68.9980481 C11.8477554,69.1541965 12.3162004,68.9394925 12.4723487,68.5100846 L17.8009109,53.8711776 L24.0468445,36.6948601 C24.5738452,35.289525 24.5738452,33.8061158 24.066363,32.4398178 Z" fill="#FF1499"></path>
                </g>
            </g>
        </g>
    </g>
</svg>